<mxfile host="app.diagrams.net" modified="2023-12-27T08:00:08.772Z" agent="Mozilla/5.0 (Windows NT 10.0; Win64; x64) AppleWebKit/537.36 (KHTML, like Gecko) Chrome/120.0.0.0 Safari/537.36" etag="e6U3siWVAmRQWlXTuc5E" version="22.1.11" type="github">
  <diagram name="Page-1" id="yn_Uo_MDrMd5kOBVJl8r">
    <mxGraphModel dx="1259" dy="655" grid="1" gridSize="10" guides="1" tooltips="1" connect="1" arrows="1" fold="1" page="1" pageScale="1" pageWidth="850" pageHeight="1100" math="0" shadow="0">
      <root>
        <mxCell id="0" />
        <mxCell id="1" parent="0" />
        <mxCell id="rEqGY4uTstqDLi3_inyf-1" value="D1&lt;span style=&quot;white-space: pre;&quot;&gt;&#x9;&lt;/span&gt;&amp;nbsp;user info" style="html=1;dashed=0;whiteSpace=wrap;shape=mxgraph.dfd.dataStoreID;align=left;spacingLeft=3;points=[[0,0],[0.5,0],[1,0],[0,0.5],[1,0.5],[0,1],[0.5,1],[1,1]];" vertex="1" parent="1">
          <mxGeometry x="600" y="325" width="100" height="30" as="geometry" />
        </mxCell>
        <mxCell id="rEqGY4uTstqDLi3_inyf-2" value="&#xa;&#xa;&#xa;1.0&#xa;&#xa;&#xa;Verifying" style="swimlane;fontStyle=0;childLayout=stackLayout;horizontal=1;startSize=20;fillColor=#ffffff;horizontalStack=0;resizeParent=1;resizeParentMax=0;resizeLast=0;collapsible=0;marginBottom=0;swimlaneFillColor=#ffffff;" vertex="1" parent="1">
          <mxGeometry x="375" y="292.5" width="100" height="95" as="geometry" />
        </mxCell>
        <mxCell id="rEqGY4uTstqDLi3_inyf-3" value="user&lt;br&gt;(student&amp;amp;educator)" style="html=1;dashed=0;whiteSpace=wrap;" vertex="1" parent="1">
          <mxGeometry x="140" y="310" width="120" height="40" as="geometry" />
        </mxCell>
        <mxCell id="rEqGY4uTstqDLi3_inyf-4" value="" style="endArrow=classic;html=1;rounded=0;exitX=1;exitY=0.75;exitDx=0;exitDy=0;entryX=0;entryY=0.5;entryDx=0;entryDy=0;" edge="1" parent="1" source="rEqGY4uTstqDLi3_inyf-3" target="rEqGY4uTstqDLi3_inyf-2">
          <mxGeometry width="50" height="50" relative="1" as="geometry">
            <mxPoint x="400" y="550" as="sourcePoint" />
            <mxPoint x="450" y="500" as="targetPoint" />
          </mxGeometry>
        </mxCell>
        <mxCell id="rEqGY4uTstqDLi3_inyf-23" value="sign-in" style="edgeLabel;html=1;align=center;verticalAlign=middle;resizable=0;points=[];" vertex="1" connectable="0" parent="rEqGY4uTstqDLi3_inyf-4">
          <mxGeometry x="-0.3231" y="4" relative="1" as="geometry">
            <mxPoint as="offset" />
          </mxGeometry>
        </mxCell>
        <mxCell id="rEqGY4uTstqDLi3_inyf-6" value="" style="endArrow=classic;html=1;rounded=0;exitX=0;exitY=0.5;exitDx=0;exitDy=0;entryX=1;entryY=0.5;entryDx=0;entryDy=0;" edge="1" parent="1" source="rEqGY4uTstqDLi3_inyf-1" target="rEqGY4uTstqDLi3_inyf-2">
          <mxGeometry width="50" height="50" relative="1" as="geometry">
            <mxPoint x="400" y="360" as="sourcePoint" />
            <mxPoint x="480" y="340" as="targetPoint" />
          </mxGeometry>
        </mxCell>
        <mxCell id="rEqGY4uTstqDLi3_inyf-7" value="D1&lt;span style=&quot;white-space: pre;&quot;&gt;&#x9;&lt;/span&gt;&amp;nbsp;Quiz info" style="html=1;dashed=0;whiteSpace=wrap;shape=mxgraph.dfd.dataStoreID;align=left;spacingLeft=3;points=[[0,0],[0.5,0],[1,0],[0,0.5],[1,0.5],[0,1],[0.5,1],[1,1]];" vertex="1" parent="1">
          <mxGeometry x="600" y="460" width="100" height="30" as="geometry" />
        </mxCell>
        <mxCell id="rEqGY4uTstqDLi3_inyf-8" value="&#xa;&#xa;&#xa;&#xa;2.0&#xa;&#xa;&#xa;Create Quiz&#xa;" style="swimlane;fontStyle=0;childLayout=stackLayout;horizontal=1;startSize=20;fillColor=#ffffff;horizontalStack=0;resizeParent=1;resizeParentMax=0;resizeLast=0;collapsible=0;marginBottom=0;swimlaneFillColor=#ffffff;" vertex="1" parent="1">
          <mxGeometry x="375" y="430" width="100" height="90" as="geometry" />
        </mxCell>
        <mxCell id="rEqGY4uTstqDLi3_inyf-10" value="" style="endArrow=classic;html=1;rounded=0;exitX=1;exitY=0.5;exitDx=0;exitDy=0;entryX=0;entryY=0.5;entryDx=0;entryDy=0;" edge="1" parent="1" source="rEqGY4uTstqDLi3_inyf-8" target="rEqGY4uTstqDLi3_inyf-7">
          <mxGeometry width="50" height="50" relative="1" as="geometry">
            <mxPoint x="400" y="475" as="sourcePoint" />
            <mxPoint x="550" y="520" as="targetPoint" />
          </mxGeometry>
        </mxCell>
        <mxCell id="rEqGY4uTstqDLi3_inyf-11" value="" style="endArrow=classic;html=1;rounded=0;exitX=0.5;exitY=1;exitDx=0;exitDy=0;entryX=0;entryY=0.5;entryDx=0;entryDy=0;" edge="1" parent="1" source="rEqGY4uTstqDLi3_inyf-3" target="rEqGY4uTstqDLi3_inyf-8">
          <mxGeometry width="50" height="50" relative="1" as="geometry">
            <mxPoint x="400" y="450" as="sourcePoint" />
            <mxPoint x="371.70000000000005" y="447.45000000000005" as="targetPoint" />
            <Array as="points">
              <mxPoint x="200" y="475" />
            </Array>
          </mxGeometry>
        </mxCell>
        <mxCell id="rEqGY4uTstqDLi3_inyf-12" value="Eductor" style="text;html=1;align=center;verticalAlign=middle;resizable=0;points=[];autosize=1;strokeColor=none;fillColor=none;rotation=90;" vertex="1" parent="1">
          <mxGeometry x="190" y="400" width="60" height="30" as="geometry" />
        </mxCell>
        <mxCell id="rEqGY4uTstqDLi3_inyf-13" value="D1&lt;span style=&quot;white-space: pre;&quot;&gt;&#x9;&lt;/span&gt;&amp;nbsp;grade inf" style="html=1;dashed=0;whiteSpace=wrap;shape=mxgraph.dfd.dataStoreID;align=left;spacingLeft=3;points=[[0,0],[0.5,0],[1,0],[0,0.5],[1,0.5],[0,1],[0.5,1],[1,1]];" vertex="1" parent="1">
          <mxGeometry x="600" y="580" width="100" height="30" as="geometry" />
        </mxCell>
        <mxCell id="rEqGY4uTstqDLi3_inyf-14" value="&#xa;&#xa;&#xa;&#xa;2.0&#xa;&#xa;&#xa;Do the Quiz&#xa;" style="swimlane;fontStyle=0;childLayout=stackLayout;horizontal=1;startSize=20;fillColor=#ffffff;horizontalStack=0;resizeParent=1;resizeParentMax=0;resizeLast=0;collapsible=0;marginBottom=0;swimlaneFillColor=#ffffff;" vertex="1" parent="1">
          <mxGeometry x="375" y="550" width="100" height="90" as="geometry" />
        </mxCell>
        <mxCell id="rEqGY4uTstqDLi3_inyf-15" value="" style="endArrow=classic;html=1;rounded=0;exitX=1;exitY=0.5;exitDx=0;exitDy=0;entryX=0;entryY=0.5;entryDx=0;entryDy=0;" edge="1" parent="1" source="rEqGY4uTstqDLi3_inyf-14" target="rEqGY4uTstqDLi3_inyf-13">
          <mxGeometry width="50" height="50" relative="1" as="geometry">
            <mxPoint x="400" y="595" as="sourcePoint" />
            <mxPoint x="580" y="650" as="targetPoint" />
          </mxGeometry>
        </mxCell>
        <mxCell id="rEqGY4uTstqDLi3_inyf-16" value="" style="endArrow=classic;html=1;rounded=0;exitX=0.25;exitY=1;exitDx=0;exitDy=0;entryX=0;entryY=0.5;entryDx=0;entryDy=0;" edge="1" parent="1" source="rEqGY4uTstqDLi3_inyf-3" target="rEqGY4uTstqDLi3_inyf-14">
          <mxGeometry width="50" height="50" relative="1" as="geometry">
            <mxPoint x="400" y="540" as="sourcePoint" />
            <mxPoint x="170" y="640" as="targetPoint" />
            <Array as="points">
              <mxPoint x="170" y="595" />
            </Array>
          </mxGeometry>
        </mxCell>
        <mxCell id="rEqGY4uTstqDLi3_inyf-17" value="student" style="edgeLabel;html=1;align=center;verticalAlign=middle;resizable=0;points=[];" vertex="1" connectable="0" parent="rEqGY4uTstqDLi3_inyf-16">
          <mxGeometry x="0.3953" y="-3" relative="1" as="geometry">
            <mxPoint as="offset" />
          </mxGeometry>
        </mxCell>
        <mxCell id="rEqGY4uTstqDLi3_inyf-18" value="" style="endArrow=classic;html=1;rounded=0;exitX=0;exitY=0.25;exitDx=0;exitDy=0;entryX=1;entryY=0.25;entryDx=0;entryDy=0;" edge="1" parent="1" source="rEqGY4uTstqDLi3_inyf-2" target="rEqGY4uTstqDLi3_inyf-3">
          <mxGeometry width="50" height="50" relative="1" as="geometry">
            <mxPoint x="380" y="330" as="sourcePoint" />
            <mxPoint x="280" y="300" as="targetPoint" />
          </mxGeometry>
        </mxCell>
        <mxCell id="rEqGY4uTstqDLi3_inyf-19" value="D1&lt;span style=&quot;white-space: pre;&quot;&gt;&#x9;&lt;/span&gt;&amp;nbsp;grade inf" style="html=1;dashed=0;whiteSpace=wrap;shape=mxgraph.dfd.dataStoreID;align=left;spacingLeft=3;points=[[0,0],[0.5,0],[1,0],[0,0.5],[1,0.5],[0,1],[0.5,1],[1,1]];" vertex="1" parent="1">
          <mxGeometry x="600" y="700" width="100" height="30" as="geometry" />
        </mxCell>
        <mxCell id="rEqGY4uTstqDLi3_inyf-20" value="&#xa;&#xa;&#xa;&#xa;2.0&#xa;&#xa;Show  Quizzes &#xa;grades&#xa;" style="swimlane;fontStyle=0;childLayout=stackLayout;horizontal=1;startSize=20;fillColor=#ffffff;horizontalStack=0;resizeParent=1;resizeParentMax=0;resizeLast=0;collapsible=0;marginBottom=0;swimlaneFillColor=#ffffff;" vertex="1" parent="1">
          <mxGeometry x="375" y="670" width="100" height="90" as="geometry" />
        </mxCell>
        <mxCell id="rEqGY4uTstqDLi3_inyf-21" value="" style="endArrow=classic;html=1;rounded=0;entryX=1;entryY=0.5;entryDx=0;entryDy=0;exitX=0;exitY=0.5;exitDx=0;exitDy=0;" edge="1" parent="1" source="rEqGY4uTstqDLi3_inyf-19" target="rEqGY4uTstqDLi3_inyf-20">
          <mxGeometry width="50" height="50" relative="1" as="geometry">
            <mxPoint x="580" y="760" as="sourcePoint" />
            <mxPoint x="580" y="770" as="targetPoint" />
          </mxGeometry>
        </mxCell>
        <mxCell id="rEqGY4uTstqDLi3_inyf-22" value="" style="endArrow=classic;html=1;rounded=0;exitX=0.128;exitY=1.027;exitDx=0;exitDy=0;exitPerimeter=0;entryX=0;entryY=0.5;entryDx=0;entryDy=0;" edge="1" parent="1" source="rEqGY4uTstqDLi3_inyf-3" target="rEqGY4uTstqDLi3_inyf-20">
          <mxGeometry width="50" height="50" relative="1" as="geometry">
            <mxPoint x="400" y="640" as="sourcePoint" />
            <mxPoint x="450" y="590" as="targetPoint" />
            <Array as="points">
              <mxPoint x="155" y="715" />
            </Array>
          </mxGeometry>
        </mxCell>
        <mxCell id="rEqGY4uTstqDLi3_inyf-24" value="" style="endArrow=classic;html=1;rounded=0;exitX=0;exitY=0.75;exitDx=0;exitDy=0;entryX=0;entryY=1;entryDx=0;entryDy=0;" edge="1" parent="1" source="rEqGY4uTstqDLi3_inyf-20" target="rEqGY4uTstqDLi3_inyf-3">
          <mxGeometry width="50" height="50" relative="1" as="geometry">
            <mxPoint x="400" y="540" as="sourcePoint" />
            <mxPoint x="450" y="490" as="targetPoint" />
            <Array as="points">
              <mxPoint x="140" y="738" />
            </Array>
          </mxGeometry>
        </mxCell>
      </root>
    </mxGraphModel>
  </diagram>
</mxfile>
